# Blender v3.0.0 OBJ File: 'buttons.blend'
# www.blender.org
mtllib hashtag.mtl
o Text.002_Text.001
v -0.333734 1.206974 0.075663
v -0.475527 0.532590 0.075663
v -1.008118 0.532590 0.075663
v -1.008118 0.293962 0.075663
v -0.523944 0.293962 0.075663
v -0.648446 -0.293962 0.075663
v -1.008118 -0.293962 0.075663
v -1.008118 -0.532590 0.075663
v -0.696863 -0.532590 0.075663
v -0.838657 -1.206974 0.075663
v -0.589654 -1.206974 0.075663
v -0.447860 -0.532590 0.075663
v 0.223065 -0.532590 0.075663
v 0.081272 -1.206974 0.075663
v 0.330275 -1.206974 0.075663
v 0.472069 -0.532590 0.075663
v 1.008118 -0.532590 0.075663
v 1.008118 -0.293962 0.075663
v 0.520486 -0.293962 0.075663
v 0.644988 0.293962 0.075663
v 1.008118 0.293962 0.075663
v 1.008118 0.532590 0.075663
v 0.693405 0.532590 0.075663
v 0.835199 1.206974 0.075663
v 0.586195 1.206974 0.075663
v 0.444402 0.532590 0.075663
v -0.226524 0.532590 0.075663
v -0.084730 1.206974 0.075663
v -0.274941 0.293962 0.075663
v 0.395984 0.293962 0.075663
v 0.271483 -0.293962 0.075663
v -0.399443 -0.293962 0.075663
v -0.333734 1.206974 -0.131840
v -0.475527 0.532590 -0.131840
v -1.008118 0.532590 -0.131840
v -1.008118 0.293962 -0.131840
v -0.523944 0.293962 -0.131840
v -0.648446 -0.293962 -0.131840
v -1.008118 -0.293962 -0.131840
v -1.008118 -0.532590 -0.131840
v -0.696863 -0.532590 -0.131840
v -0.838657 -1.206974 -0.131840
v -0.589654 -1.206974 -0.131840
v -0.447860 -0.532590 -0.131840
v 0.223065 -0.532590 -0.131840
v 0.081272 -1.206974 -0.131840
v 0.330275 -1.206974 -0.131840
v 0.472069 -0.532590 -0.131840
v 1.008118 -0.532590 -0.131834
v 1.008118 -0.293962 -0.131840
v 0.520486 -0.293962 -0.131840
v 0.644988 0.293962 -0.131840
v 1.008118 0.293962 -0.131840
v 1.008118 0.532590 -0.131840
v 0.693405 0.532590 -0.131840
v 0.835199 1.206974 -0.131840
v 0.586195 1.206974 -0.131840
v 0.444402 0.532590 -0.131840
v -0.226524 0.532590 -0.131840
v -0.084730 1.206974 -0.131840
v -0.274941 0.293962 -0.131834
v 0.395984 0.293962 -0.131840
v 0.271483 -0.293962 -0.131840
v -0.399443 -0.293962 -0.131840
vt 0.032258 0.000000
vt 0.870968 0.000000
vt 0.000000 0.000000
vt 0.838710 0.000000
vt 0.806452 0.000000
vt 0.741935 0.000000
vt 0.774194 0.000000
vt 0.709677 0.000000
vt 0.096774 0.000000
vt 0.064516 0.000000
vt 0.677419 0.000000
vt 0.645161 0.000000
vt 0.129032 0.000000
vt 0.161290 0.000000
vt 0.903226 0.000000
vt 1.000000 0.000000
vt 0.935484 0.000000
vt 0.967742 0.000000
vt 0.612903 0.000000
vt 0.580645 0.000000
vt 0.225806 0.000000
vt 0.193548 0.000000
vt 0.548387 0.000000
vt 0.516129 0.000000
vt 0.258065 0.000000
vt 0.290323 0.000000
vt 0.354839 0.000000
vt 0.322581 0.000000
vt 0.387097 0.000000
vt 0.419355 0.000000
vt 0.483871 0.000000
vt 0.451613 0.000000
vt 0.032258 0.000000
vt 0.000000 0.000000
vt 0.870968 0.000000
vt 0.838710 0.000000
vt 0.806452 0.000000
vt 0.774194 0.000000
vt 0.741935 0.000000
vt 0.709677 0.000000
vt 0.096774 0.000000
vt 0.064516 0.000000
vt 0.677419 0.000000
vt 0.645161 0.000000
vt 0.129032 0.000000
vt 0.161290 0.000000
vt 0.903226 0.000000
vt 1.000000 0.000000
vt 0.935484 0.000000
vt 0.967742 0.000000
vt 0.612903 0.000000
vt 0.580645 0.000000
vt 0.225806 0.000000
vt 0.193548 0.000000
vt 0.548387 0.000000
vt 0.516129 0.000000
vt 0.258065 0.000000
vt 0.290323 0.000000
vt 0.354839 0.000000
vt 0.322581 0.000000
vt 0.387097 0.000000
vt 0.419355 0.000000
vt 0.483871 0.000000
vt 0.451613 0.000000
vn 0.0000 -0.0000 1.0000
vn 0.0000 0.0000 -1.0000
vn 0.0000 -1.0000 -0.0062
vn 0.0000 1.0000 0.0000
vn 0.0000 0.9927 -0.1204
vn 0.0000 0.9993 -0.0379
vn -0.9786 0.2058 0.0000
vn 0.9786 -0.2058 0.0000
vn -1.0000 -0.0000 0.0000
vn 1.0000 -0.0000 0.0000
vn 0.0000 -1.0000 0.0000
vn -0.9783 0.2072 0.0000
vn 0.9783 -0.2072 0.0000
usemtl None
s off
f 2/1/1 28/2/1 1/3/1
f 2/1/1 27/4/1 28/2/1
f 26/5/1 24/6/1 25/7/1
f 26/5/1 23/8/1 24/6/1
f 4/9/1 2/1/1 3/10/1
f 4/9/1 27/4/1 2/1/1
f 4/9/1 26/5/1 27/4/1
f 4/9/1 23/8/1 26/5/1
f 4/9/1 22/11/1 23/8/1
f 4/9/1 21/12/1 22/11/1
f 5/13/2 21/12/2 4/9/2
f 6/14/1 29/15/1 5/13/1
f 29/15/1 21/12/1 5/13/1
f 6/14/1 32/16/1 29/15/1
f 30/17/1 21/12/1 29/15/1
f 31/18/1 20/19/1 30/17/1
f 20/19/1 21/12/1 30/17/1
f 31/18/1 19/20/1 20/19/1
f 8/21/1 6/14/1 7/22/1
f 8/21/1 32/16/1 6/14/1
f 8/21/1 31/18/1 32/16/1
f 8/21/1 19/20/1 31/18/1
f 8/21/1 18/23/1 19/20/1
f 8/21/1 17/24/1 18/23/1
f 9/25/1 17/24/1 8/21/1
f 10/26/1 12/27/1 9/25/1
f 12/27/1 17/24/1 9/25/1
f 10/26/1 11/28/1 12/27/1
f 13/29/1 17/24/1 12/27/1
f 14/30/1 16/31/1 13/29/1
f 16/31/1 17/24/1 13/29/1
f 14/30/1 15/32/1 16/31/1
f 34/33/2 33/34/2 60/35/2
f 34/33/2 60/35/2 59/36/2
f 58/37/2 57/38/2 56/39/2
f 58/37/2 56/39/2 55/40/2
f 36/41/2 35/42/2 34/33/2
f 36/41/2 34/33/2 59/36/2
f 36/41/2 59/36/2 58/37/2
f 36/41/2 58/37/2 55/40/2
f 36/41/2 55/40/2 54/43/2
f 36/41/2 54/43/2 53/44/2
f 37/45/1 36/41/1 53/44/1
f 38/46/2 37/45/2 61/47/2
f 61/47/3 37/45/3 53/44/3
f 38/46/2 61/47/2 64/48/2
f 62/49/4 61/47/4 53/44/4
f 63/50/2 62/49/2 52/51/2
f 52/51/1 62/49/1 53/44/1
f 63/50/2 52/51/2 51/52/2
f 40/53/2 39/54/2 38/46/2
f 40/53/2 38/46/2 64/48/2
f 40/53/2 64/48/2 63/50/2
f 40/53/2 63/50/2 51/52/2
f 40/53/2 51/52/2 50/55/2
f 40/53/2 50/55/2 49/56/2
f 41/57/5 40/53/5 49/56/5
f 42/58/2 41/57/2 44/59/2
f 44/59/4 41/57/4 49/56/4
f 42/58/2 44/59/2 43/60/2
f 45/61/4 44/59/4 49/56/4
f 46/62/2 45/61/2 48/63/2
f 48/63/6 45/61/6 49/56/6
f 46/62/2 48/63/2 47/64/2
f 2/1/7 1/3/7 33/34/7 34/33/7
f 1/3/4 28/2/4 60/35/4 33/34/4
f 28/2/8 27/4/8 59/36/8 60/35/8
f 26/5/7 25/7/7 57/38/7 58/37/7
f 25/7/4 24/6/4 56/39/4 57/38/4
f 24/6/8 23/8/8 55/40/8 56/39/8
f 4/9/9 3/10/9 35/42/9 36/41/9
f 3/10/4 2/1/4 34/33/4 35/42/4
f 27/4/4 26/5/4 58/37/4 59/36/4
f 23/8/4 22/11/4 54/43/4 55/40/4
f 22/11/10 21/12/10 53/44/10 54/43/10
f 5/13/11 4/9/11 36/41/11 37/45/11
f 6/14/12 5/13/12 37/45/12 38/46/12
f 29/15/13 32/16/13 64/48/13 61/47/13
f 30/17/11 29/15/11 61/47/11 62/49/11
f 31/18/12 30/17/12 62/49/12 63/50/12
f 21/12/11 20/19/11 52/51/11 53/44/11
f 20/19/13 19/20/13 51/52/13 52/51/13
f 8/21/9 7/22/9 39/54/9 40/53/9
f 7/22/4 6/14/4 38/46/4 39/54/4
f 32/16/4 31/18/4 63/50/4 64/48/4
f 19/20/4 18/23/4 50/55/4 51/52/4
f 18/23/10 17/24/10 49/56/10 50/55/10
f 9/25/11 8/21/11 40/53/11 41/57/11
f 10/26/7 9/25/7 41/57/7 42/58/7
f 11/28/11 10/26/11 42/58/11 43/60/11
f 12/27/8 11/28/8 43/60/8 44/59/8
f 13/29/11 12/27/11 44/59/11 45/61/11
f 14/30/7 13/29/7 45/61/7 46/62/7
f 17/24/11 16/31/11 48/63/11 49/56/11
f 15/32/11 14/30/11 46/62/11 47/64/11
f 16/31/8 15/32/8 47/64/8 48/63/8
