# Blender v3.0.0 OBJ File: 'buttons.blend'
# www.blender.org
o settings_Circle.005
v 0.240464 0.975772 -0.078948
v -0.197672 0.985332 -0.078948
v -0.519941 0.860008 -0.078948
v -0.836510 0.556959 -0.078948
v -0.975772 0.240464 -0.078948
v -0.985332 -0.197672 -0.078948
v -0.860008 -0.519941 -0.078948
v -0.556960 -0.836510 -0.078948
v -0.240464 -0.975772 -0.078948
v 0.197672 -0.985332 -0.078948
v 0.519941 -0.860008 -0.078948
v 0.836510 -0.556960 -0.078948
v 0.975772 -0.240464 -0.078948
v 0.985332 0.197672 -0.078948
v 0.860008 0.519941 -0.078948
v 0.556959 0.836510 -0.078948
v 0.261474 1.179435 -0.078948
v 0.094735 1.391895 -0.078948
v 0.231721 1.327743 -0.078948
v -0.209779 1.189718 -0.078948
v -0.033931 1.394702 -0.078948
v -0.173585 1.336587 -0.078948
v -0.649096 1.018877 -0.078948
v -0.917231 1.051206 -0.078948
v -0.775005 1.102708 -0.078948
v -0.989594 0.692921 -0.078948
v -1.010196 0.962211 -0.078948
v -1.067853 0.822366 -0.078948
v -1.179435 0.261474 -0.078948
v -1.391895 0.094735 -0.078948
v -1.327743 0.231721 -0.078948
v -1.189718 -0.209779 -0.078948
v -1.394702 -0.033931 -0.078948
v -1.336587 -0.173585 -0.078948
v -1.018877 -0.649096 -0.078948
v -1.051206 -0.917231 -0.078948
v -1.102708 -0.775005 -0.078948
v -0.692921 -0.989594 -0.078948
v -0.962211 -1.010196 -0.078948
v -0.822367 -1.067853 -0.078948
v -0.261474 -1.179435 -0.078948
v -0.094735 -1.391895 -0.078948
v -0.231721 -1.327743 -0.078948
v 0.209779 -1.189718 -0.078948
v 0.033931 -1.394702 -0.078948
v 0.173585 -1.336587 -0.078948
v 0.649096 -1.018877 -0.078948
v 0.917230 -1.051206 -0.078948
v 0.775005 -1.102708 -0.078948
v 0.989594 -0.692921 -0.078948
v 1.010196 -0.962211 -0.078948
v 1.067853 -0.822367 -0.078948
v 1.179435 -0.261474 -0.078948
v 1.391895 -0.094735 -0.078948
v 1.327743 -0.231721 -0.078948
v 1.189718 0.209780 -0.078948
v 1.394702 0.033931 -0.078948
v 1.336587 0.173585 -0.078948
v 1.018877 0.649096 -0.078948
v 1.051206 0.917230 -0.078948
v 1.102708 0.775005 -0.078948
v 0.692921 0.989594 -0.078948
v 0.962211 1.010196 -0.078948
v 0.822367 1.067853 -0.078948
v -0.290012 0.499091 -0.078948
v -0.123362 0.563898 -0.078948
v 0.147842 0.557980 -0.078948
v -0.557980 0.147841 -0.078948
v -0.485966 0.311506 -0.078948
v -0.499091 -0.290012 -0.078948
v -0.563898 -0.123362 -0.078948
v -0.147841 -0.557980 -0.078948
v -0.311506 -0.485966 -0.078948
v 0.290012 -0.499091 -0.078948
v 0.123362 -0.563898 -0.078948
v 0.557980 -0.147841 -0.078948
v 0.485966 -0.311506 -0.078948
v 0.499091 0.290012 -0.078948
v 0.563898 0.123362 -0.078948
v 0.311506 0.485966 -0.078948
v 0.240464 0.975772 0.021052
v -0.197672 0.985332 0.021052
v -0.519941 0.860008 0.021052
v -0.836510 0.556959 0.021052
v -0.975772 0.240464 0.021052
v -0.985332 -0.197672 0.021052
v -0.860008 -0.519941 0.021052
v -0.556960 -0.836510 0.021052
v -0.240464 -0.975772 0.021052
v 0.197672 -0.985332 0.021052
v 0.519941 -0.860008 0.021052
v 0.836510 -0.556960 0.021052
v 0.975772 -0.240464 0.021052
v 0.985332 0.197672 0.021052
v 0.860008 0.519941 0.021052
v 0.556959 0.836510 0.021052
v 0.261474 1.179435 0.021052
v 0.094735 1.391895 0.021052
v 0.231721 1.327743 0.021052
v -0.209779 1.189718 0.021052
v -0.033931 1.394702 0.021052
v -0.173585 1.336587 0.021052
v -0.649096 1.018877 0.021052
v -0.917231 1.051206 0.021052
v -0.775005 1.102708 0.021052
v -0.989594 0.692921 0.021052
v -1.010196 0.962211 0.021052
v -1.067853 0.822366 0.021052
v -1.179435 0.261474 0.021052
v -1.391895 0.094735 0.021052
v -1.327743 0.231721 0.021052
v -1.189718 -0.209779 0.021052
v -1.394702 -0.033931 0.021052
v -1.336587 -0.173585 0.021049
v -1.018877 -0.649096 0.021052
v -1.051206 -0.917231 0.021052
v -1.102708 -0.775005 0.021052
v -0.692921 -0.989594 0.021052
v -0.962211 -1.010196 0.021049
v -0.822367 -1.067853 0.021052
v -0.261474 -1.179435 0.021052
v -0.094735 -1.391895 0.021052
v -0.231721 -1.327743 0.021052
v 0.209779 -1.189718 0.021052
v 0.033931 -1.394702 0.021052
v 0.173585 -1.336587 0.021049
v 0.649096 -1.018877 0.021052
v 0.917230 -1.051206 0.021052
v 0.775005 -1.102708 0.021052
v 0.989594 -0.692921 0.021052
v 1.010196 -0.962211 0.021052
v 1.067853 -0.822367 0.021052
v 1.179435 -0.261474 0.021052
v 1.391895 -0.094735 0.021052
v 1.327743 -0.231721 0.021052
v 1.189718 0.209780 0.021052
v 1.394702 0.033931 0.021052
v 1.336587 0.173585 0.021052
v 1.018877 0.649096 0.021052
v 1.051206 0.917230 0.021052
v 1.102708 0.775005 0.021052
v 0.692921 0.989594 0.021052
v 0.962211 1.010196 0.021052
v 0.822367 1.067853 0.021049
v -0.290012 0.499091 0.021049
v -0.123362 0.563898 0.021052
v 0.147842 0.557980 0.021052
v -0.557980 0.147841 0.021052
v -0.485966 0.311506 0.021052
v -0.499091 -0.290012 0.021049
v -0.563898 -0.123362 0.021049
v -0.147841 -0.557980 0.021049
v -0.311506 -0.485966 0.021052
v 0.290012 -0.499091 0.021049
v 0.123362 -0.563898 0.021049
v 0.557980 -0.147841 0.021049
v 0.485966 -0.311506 0.021052
v 0.499091 0.290012 0.021052
v 0.563898 0.123362 0.021052
v 0.311506 0.485966 0.021052
vt 0.347150 0.339370
vt 0.353916 0.324060
vt 0.361778 0.326435
vt 0.366771 0.329723
vt 0.366914 0.335441
vt 0.364927 0.339937
vt 0.360512 0.343885
vt 0.354500 0.342901
vt 0.280803 0.295677
vt 0.274037 0.310986
vt 0.266175 0.308612
vt 0.261182 0.305324
vt 0.261039 0.299606
vt 0.263026 0.295110
vt 0.267441 0.291161
vt 0.273452 0.292145
vt 0.353916 0.310986
vt 0.347150 0.295677
vt 0.354500 0.292145
vt 0.360512 0.291161
vt 0.364927 0.295110
vt 0.366914 0.299606
vt 0.366771 0.305323
vt 0.361778 0.308612
vt 0.274037 0.324060
vt 0.280803 0.339370
vt 0.273452 0.342901
vt 0.267441 0.343885
vt 0.263026 0.339937
vt 0.261039 0.335441
vt 0.261182 0.329723
vt 0.266175 0.326435
vt 0.337286 0.286432
vt 0.320951 0.280091
vt 0.323485 0.272722
vt 0.326993 0.268042
vt 0.333094 0.267908
vt 0.337891 0.269770
vt 0.342104 0.273908
vt 0.341054 0.279543
vt 0.320951 0.354956
vt 0.337286 0.348615
vt 0.341054 0.355504
vt 0.342104 0.361138
vt 0.337891 0.365276
vt 0.333094 0.367138
vt 0.326993 0.367004
vt 0.323485 0.362325
vt 0.307001 0.280091
vt 0.290667 0.286432
vt 0.286899 0.279543
vt 0.285849 0.273908
vt 0.290062 0.269770
vt 0.294859 0.267908
vt 0.300960 0.268042
vt 0.304468 0.272722
vt 0.290667 0.348615
vt 0.307001 0.354956
vt 0.304468 0.362325
vt 0.300960 0.367004
vt 0.294859 0.367138
vt 0.290062 0.365276
vt 0.285849 0.361138
vt 0.286899 0.355504
vt 0.300259 0.335161
vt 0.310370 0.339086
vt 0.317583 0.339086
vt 0.327694 0.335161
vt 0.332795 0.330380
vt 0.336983 0.320904
vt 0.336983 0.314143
vt 0.332795 0.304666
vt 0.327694 0.299886
vt 0.317583 0.295961
vt 0.310370 0.295961
vt 0.300259 0.299886
vt 0.295158 0.304666
vt 0.290970 0.314143
vt 0.290970 0.320904
vt 0.295158 0.330380
vt 0.347150 0.339370
vt 0.354500 0.342901
vt 0.360512 0.343885
vt 0.364927 0.339937
vt 0.366914 0.335441
vt 0.366771 0.329723
vt 0.361778 0.326435
vt 0.353916 0.324060
vt 0.280803 0.295677
vt 0.273452 0.292145
vt 0.267441 0.291161
vt 0.263026 0.295110
vt 0.261039 0.299606
vt 0.261182 0.305324
vt 0.266175 0.308612
vt 0.274037 0.310986
vt 0.353916 0.310986
vt 0.361778 0.308612
vt 0.366771 0.305323
vt 0.366914 0.299606
vt 0.364927 0.295110
vt 0.360512 0.291161
vt 0.354500 0.292145
vt 0.347150 0.295677
vt 0.274037 0.324060
vt 0.266175 0.326435
vt 0.261182 0.329723
vt 0.261039 0.335441
vt 0.263026 0.339937
vt 0.267441 0.343885
vt 0.273452 0.342901
vt 0.280803 0.339370
vt 0.337286 0.286432
vt 0.341054 0.279543
vt 0.342104 0.273908
vt 0.337891 0.269770
vt 0.333094 0.267908
vt 0.326993 0.268042
vt 0.323485 0.272722
vt 0.320951 0.280091
vt 0.320951 0.354956
vt 0.323485 0.362325
vt 0.326993 0.367004
vt 0.333094 0.367138
vt 0.337891 0.365276
vt 0.342104 0.361138
vt 0.341054 0.355504
vt 0.337286 0.348615
vt 0.307001 0.280091
vt 0.304468 0.272722
vt 0.300960 0.268042
vt 0.294859 0.267908
vt 0.290062 0.269770
vt 0.285849 0.273908
vt 0.286899 0.279543
vt 0.290667 0.286432
vt 0.290667 0.348615
vt 0.286899 0.355504
vt 0.285849 0.361138
vt 0.290062 0.365276
vt 0.294859 0.367138
vt 0.300960 0.367004
vt 0.304468 0.362325
vt 0.307001 0.354956
vt 0.300259 0.335161
vt 0.310370 0.339086
vt 0.317583 0.339086
vt 0.327694 0.335161
vt 0.332795 0.330380
vt 0.336983 0.320904
vt 0.336983 0.314143
vt 0.332795 0.304666
vt 0.327694 0.299886
vt 0.317583 0.295961
vt 0.310370 0.295961
vt 0.300259 0.299886
vt 0.295158 0.304666
vt 0.290970 0.314143
vt 0.290970 0.320904
vt 0.295158 0.330380
vn -0.0000 0.0000 -1.0000
vn -0.0000 -0.0000 1.0000
vn 0.3624 -0.9320 0.0000
vn 0.9153 -0.4027 0.0000
vn 0.9320 0.3624 0.0000
vn 0.4027 0.9153 0.0000
vn -0.3624 0.9320 0.0000
vn -0.9153 0.4027 0.0000
vn -0.9320 -0.3624 0.0000
vn -0.4027 -0.9153 0.0000
vn 0.9947 -0.1026 0.0000
vn -0.9983 -0.0591 0.0000
vn -0.9710 0.2393 0.0000
vn -0.3842 0.9233 0.0000
vn 0.0218 0.9998 0.0000
vn 0.4241 0.9056 0.0000
vn 0.9805 0.1967 0.0000
vn 0.7759 0.6308 0.0000
vn -0.6641 -0.7477 0.0000
vn -0.8558 -0.5174 0.0000
vn -0.9245 0.3812 0.0000
vn -0.6915 0.7224 0.0000
vn -0.3405 0.9403 0.0000
vn 0.5542 0.8324 0.0000
vn 0.1026 0.9947 0.0000
vn 0.0591 -0.9983 0.0000
vn -0.2393 -0.9710 0.0000
vn -0.9233 -0.3842 0.0000
vn -0.9998 0.0218 0.0000
vn -0.9056 0.4241 0.0000
vn -0.1967 0.9805 0.0000
vn -0.6308 0.7759 0.0000
vn 0.7477 -0.6641 0.0000
vn 0.5174 -0.8558 0.0000
vn -0.3812 -0.9245 0.0000
vn -0.7224 -0.6915 0.0000
vn -0.9403 -0.3405 0.0000
vn -0.8324 0.5542 0.0000
vn -0.9947 0.1026 0.0000
vn 0.9983 0.0591 0.0000
vn 0.9710 -0.2393 0.0000
vn 0.3842 -0.9233 0.0000
vn -0.0218 -0.9998 0.0000
vn -0.4241 -0.9056 0.0000
vn -0.9805 -0.1967 0.0000
vn -0.7759 -0.6308 0.0000
vn 0.6641 0.7477 0.0000
vn 0.8558 0.5174 0.0000
vn 0.9245 -0.3812 0.0000
vn 0.6915 -0.7224 0.0000
vn 0.3405 -0.9403 0.0000
vn -0.5542 -0.8324 0.0000
vn -0.1026 -0.9947 0.0000
vn -0.0591 0.9983 0.0000
vn 0.2393 0.9710 0.0000
vn 0.9233 0.3842 0.0000
vn 0.9998 -0.0218 0.0000
vn 0.9056 -0.4241 0.0000
vn 0.1967 -0.9805 0.0000
vn 0.6308 -0.7759 0.0000
vn -0.7477 0.6641 0.0000
vn -0.5174 0.8558 0.0000
vn 0.3812 0.9245 0.0000
vn 0.7224 0.6915 0.0000
vn 0.9403 0.3405 0.0000
vn 0.8324 -0.5542 0.0000
s off
f 5/1/1 6/2/1 32/3/1 34/4/1 33/5/1 30/6/1 31/7/1 29/8/1
f 13/9/1 14/10/1 56/11/1 58/12/1 57/13/1 54/14/1 55/15/1 53/16/1
f 7/17/1 8/18/1 38/19/1 40/20/1 39/21/1 36/22/1 37/23/1 35/24/1
f 15/25/1 16/26/1 62/27/1 64/28/1 63/29/1 60/30/1 61/31/1 59/32/1
f 9/33/1 10/34/1 44/35/1 46/36/1 45/37/1 42/38/1 43/39/1 41/40/1
f 3/41/1 4/42/1 26/43/1 28/44/1 27/45/1 24/46/1 25/47/1 23/48/1
f 11/49/1 12/50/1 50/51/1 52/52/1 51/53/1 48/54/1 49/55/1 47/56/1
f 1/57/1 2/58/1 20/59/1 22/60/1 21/61/1 18/62/1 19/63/1 17/64/1
f 67/65/1 66/66/1 2/58/1 1/57/1
f 66/66/1 65/67/1 3/41/1 2/58/1
f 65/67/1 69/68/1 4/42/1 3/41/1
f 69/68/1 68/69/1 5/1/1 4/42/1
f 68/69/1 71/70/1 6/2/1 5/1/1
f 71/70/1 70/71/1 7/17/1 6/2/1
f 70/71/1 73/72/1 8/18/1 7/17/1
f 73/72/1 72/73/1 9/33/1 8/18/1
f 72/73/1 75/74/1 10/34/1 9/33/1
f 75/74/1 74/75/1 11/49/1 10/34/1
f 74/75/1 77/76/1 12/50/1 11/49/1
f 77/76/1 76/77/1 13/9/1 12/50/1
f 76/77/1 79/78/1 14/10/1 13/9/1
f 79/78/1 78/79/1 15/25/1 14/10/1
f 78/79/1 80/80/1 16/26/1 15/25/1
f 80/80/1 67/65/1 1/57/1 16/26/1
f 85/81/2 109/82/2 111/83/2 110/84/2 113/85/2 114/86/2 112/87/2 86/88/2
f 93/89/2 133/90/2 135/91/2 134/92/2 137/93/2 138/94/2 136/95/2 94/96/2
f 87/97/2 115/98/2 117/99/2 116/100/2 119/101/2 120/102/2 118/103/2 88/104/2
f 95/105/2 139/106/2 141/107/2 140/108/2 143/109/2 144/110/2 142/111/2 96/112/2
f 89/113/2 121/114/2 123/115/2 122/116/2 125/117/2 126/118/2 124/119/2 90/120/2
f 83/121/2 103/122/2 105/123/2 104/124/2 107/125/2 108/126/2 106/127/2 84/128/2
f 91/129/2 127/130/2 129/131/2 128/132/2 131/133/2 132/134/2 130/135/2 92/136/2
f 81/137/2 97/138/2 99/139/2 98/140/2 101/141/2 102/142/2 100/143/2 82/144/2
f 147/145/2 81/137/2 82/144/2 146/146/2
f 146/146/2 82/144/2 83/121/2 145/147/2
f 145/147/2 83/121/2 84/128/2 149/148/2
f 149/148/2 84/128/2 85/81/2 148/149/2
f 148/149/2 85/81/2 86/88/2 151/150/2
f 151/150/2 86/88/2 87/97/2 150/151/2
f 150/151/2 87/97/2 88/104/2 153/152/2
f 153/152/2 88/104/2 89/113/2 152/153/2
f 152/153/2 89/113/2 90/120/2 155/154/2
f 155/154/2 90/120/2 91/129/2 154/155/2
f 154/155/2 91/129/2 92/136/2 157/156/2
f 157/156/2 92/136/2 93/89/2 156/157/2
f 156/157/2 93/89/2 94/96/2 159/158/2
f 159/158/2 94/96/2 95/105/2 158/159/2
f 158/159/2 95/105/2 96/112/2 160/160/2
f 160/160/2 96/112/2 81/137/2 147/145/2
f 65/67/3 66/66/3 146/146/3 145/147/3
f 68/69/4 69/68/4 149/148/4 148/149/4
f 70/71/5 71/70/5 151/150/5 150/151/5
f 72/73/6 73/72/6 153/152/6 152/153/6
f 74/75/7 75/74/7 155/154/7 154/155/7
f 76/77/8 77/76/8 157/156/8 156/157/8
f 78/79/9 79/78/9 159/158/9 158/159/9
f 67/65/10 80/80/10 160/160/10 147/145/10
f 1/57/11 17/64/11 97/138/11 81/137/11
f 20/59/12 2/58/12 82/144/12 100/143/12
f 22/60/13 20/59/13 100/143/13 102/142/13
f 21/61/14 22/60/14 102/142/14 101/141/14
f 18/62/15 21/61/15 101/141/15 98/140/15
f 19/63/16 18/62/16 98/140/16 99/139/16
f 17/64/17 19/63/17 99/139/17 97/138/17
f 3/41/18 23/48/18 103/122/18 83/121/18
f 26/43/19 4/42/19 84/128/19 106/127/19
f 28/44/20 26/43/20 106/127/20 108/126/20
f 27/45/21 28/44/21 108/126/21 107/125/21
f 24/46/22 27/45/22 107/125/22 104/124/22
f 25/47/23 24/46/23 104/124/23 105/123/23
f 23/48/24 25/47/24 105/123/24 103/122/24
f 5/1/25 29/8/25 109/82/25 85/81/25
f 32/3/26 6/2/26 86/88/26 112/87/26
f 34/4/27 32/3/27 112/87/27 114/86/27
f 33/5/28 34/4/28 114/86/28 113/85/28
f 30/6/29 33/5/29 113/85/29 110/84/29
f 31/7/30 30/6/30 110/84/30 111/83/30
f 29/8/31 31/7/31 111/83/31 109/82/31
f 7/17/32 35/24/32 115/98/32 87/97/32
f 38/19/33 8/18/33 88/104/33 118/103/33
f 40/20/34 38/19/34 118/103/34 120/102/34
f 39/21/35 40/20/35 120/102/35 119/101/35
f 36/22/36 39/21/36 119/101/36 116/100/36
f 37/23/37 36/22/37 116/100/37 117/99/37
f 35/24/38 37/23/38 117/99/38 115/98/38
f 9/33/39 41/40/39 121/114/39 89/113/39
f 44/35/40 10/34/40 90/120/40 124/119/40
f 46/36/41 44/35/41 124/119/41 126/118/41
f 45/37/42 46/36/42 126/118/42 125/117/42
f 42/38/43 45/37/43 125/117/43 122/116/43
f 43/39/44 42/38/44 122/116/44 123/115/44
f 41/40/45 43/39/45 123/115/45 121/114/45
f 11/49/46 47/56/46 127/130/46 91/129/46
f 50/51/47 12/50/47 92/136/47 130/135/47
f 52/52/48 50/51/48 130/135/48 132/134/48
f 51/53/49 52/52/49 132/134/49 131/133/49
f 48/54/50 51/53/50 131/133/50 128/132/50
f 49/55/51 48/54/51 128/132/51 129/131/51
f 47/56/52 49/55/52 129/131/52 127/130/52
f 13/9/53 53/16/53 133/90/53 93/89/53
f 56/11/54 14/10/54 94/96/54 136/95/54
f 58/12/55 56/11/55 136/95/55 138/94/55
f 57/13/56 58/12/56 138/94/56 137/93/56
f 54/14/57 57/13/57 137/93/57 134/92/57
f 55/15/58 54/14/58 134/92/58 135/91/58
f 53/16/59 55/15/59 135/91/59 133/90/59
f 15/25/60 59/32/60 139/106/60 95/105/60
f 62/27/61 16/26/61 96/112/61 142/111/61
f 64/28/62 62/27/62 142/111/62 144/110/62
f 63/29/63 64/28/63 144/110/63 143/109/63
f 60/30/64 63/29/64 143/109/64 140/108/64
f 61/31/65 60/30/65 140/108/65 141/107/65
f 59/32/66 61/31/66 141/107/66 139/106/66
f 66/66/43 67/65/43 147/145/43 146/146/43
f 2/58/7 3/41/7 83/121/7 82/144/7
f 69/68/50 65/67/50 145/147/50 149/148/50
f 4/42/8 5/1/8 85/81/8 84/128/8
f 71/70/57 68/69/57 148/149/57 151/150/57
f 6/2/9 7/17/9 87/97/9 86/88/9
f 73/72/64 70/71/64 150/151/64 153/152/64
f 8/18/10 9/33/10 89/113/10 88/104/10
f 75/74/15 72/73/15 152/153/15 155/154/15
f 10/34/3 11/49/3 91/129/3 90/120/3
f 77/76/22 74/75/22 154/155/22 157/156/22
f 12/50/4 13/9/4 93/89/4 92/136/4
f 79/78/29 76/77/29 156/157/29 159/158/29
f 14/10/5 15/25/5 95/105/5 94/96/5
f 80/80/36 78/79/36 158/159/36 160/160/36
f 16/26/6 1/57/6 81/137/6 96/112/6
