# Blender v3.0.0 OBJ File: 'buttons.blend'
# www.blender.org
o backward_Plane.009
v -0.041853 0.000000 0.029822
v 0.837962 -1.254297 0.029822
v 0.837963 1.254296 0.029822
v 0.837963 -0.000001 0.029822
v -1.195193 0.000001 0.029822
v -0.315378 -1.254297 0.029822
v -0.315377 1.254296 0.029822
v -0.315378 -0.000000 0.029822
v -0.041853 0.000000 -0.070175
v 0.837962 -1.254297 -0.070178
v 0.837963 1.254296 -0.070178
v 0.837963 -0.000001 -0.070178
v -1.195193 0.000001 -0.070175
v -0.315378 -1.254297 -0.070178
v -0.315377 1.254296 -0.070178
v -0.315378 -0.000000 -0.070178
vt 0.267963 0.316994
vt 0.305253 0.267168
vt 0.305253 0.316994
vt 0.305253 0.366819
vt 0.305277 0.316994
vt 0.342567 0.267168
vt 0.342567 0.316994
vt 0.342567 0.366819
vt 0.267963 0.316994
vt 0.305253 0.366819
vt 0.305253 0.316994
vt 0.305253 0.267168
vt 0.305277 0.316994
vt 0.342567 0.366819
vt 0.342567 0.316994
vt 0.342567 0.267168
vn 0.0000 0.0000 1.0000
vn -0.0000 -0.0000 -1.0000
vn -0.8187 0.5743 0.0000
vn -0.8187 -0.5743 0.0000
vn 1.0000 -0.0000 0.0000
s off
f 1/1/1 2/2/1 4/3/1 3/4/1
f 5/5/1 6/6/1 8/7/1 7/8/1
f 9/9/2 11/10/2 12/11/2 10/12/2
f 13/13/2 15/14/2 16/15/2 14/16/2
f 1/1/3 3/4/3 11/10/3 9/9/3
f 2/2/4 1/1/4 9/9/4 10/12/4
f 3/4/5 4/3/5 12/11/5 11/10/5
f 4/3/5 2/2/5 10/12/5 12/11/5
f 5/5/3 7/8/3 15/14/3 13/13/3
f 6/6/4 5/5/4 13/13/4 14/16/4
f 7/8/5 8/7/5 16/15/5 15/14/5
f 8/7/5 6/6/5 14/16/5 16/15/5
