# Blender v3.0.0 OBJ File: 'buttons.blend'
# www.blender.org
o pause_Plane.003
v -0.868741 -1.249720 0.029822
v -0.320459 -1.249720 0.029822
v -0.868741 1.249720 0.029822
v -0.320459 1.249720 0.029822
v 0.317317 -1.249720 0.029822
v 0.865599 -1.249720 0.029822
v 0.317317 1.249720 0.029822
v 0.865599 1.249720 0.029822
v -0.868741 -1.249720 -0.070178
v -0.320459 -1.249720 -0.070178
v -0.868741 1.249720 -0.070178
v -0.320459 1.249720 -0.070178
v 0.317317 -1.249720 -0.070178
v 0.865599 -1.249720 -0.070178
v 0.317317 1.249720 -0.070178
v 0.865599 1.249720 -0.070178
vt 0.293058 0.275663
vt 0.312936 0.275663
vt 0.312936 0.360594
vt 0.293058 0.360594
vt 0.312953 0.275663
vt 0.332831 0.275663
vt 0.332831 0.360594
vt 0.312953 0.360594
vt 0.293058 0.275663
vt 0.293058 0.360594
vt 0.312936 0.360594
vt 0.312936 0.275663
vt 0.312953 0.275663
vt 0.312953 0.360594
vt 0.332831 0.360594
vt 0.332831 0.275663
vn 0.0000 -0.0000 1.0000
vn 0.0000 0.0000 -1.0000
vn -1.0000 -0.0000 0.0000
vn 0.0000 -1.0000 0.0000
vn 1.0000 0.0000 0.0000
vn 0.0000 1.0000 0.0000
s off
f 1/1/1 2/2/1 4/3/1 3/4/1
f 5/5/1 6/6/1 8/7/1 7/8/1
f 9/9/2 11/10/2 12/11/2 10/12/2
f 13/13/2 15/14/2 16/15/2 14/16/2
f 1/1/3 3/4/3 11/10/3 9/9/3
f 2/2/4 1/1/4 9/9/4 10/12/4
f 4/3/5 2/2/5 10/12/5 12/11/5
f 3/4/6 4/3/6 12/11/6 11/10/6
f 5/5/3 7/8/3 15/14/3 13/13/3
f 6/6/4 5/5/4 13/13/4 14/16/4
f 8/7/5 6/6/5 14/16/5 16/15/5
f 7/8/6 8/7/6 16/15/6 15/14/6
