<?xml version="1.0" standalone="no"?>
<!DOCTYPE svg PUBLIC "-//W3C//DTD SVG 20010904//EN"
 "http://www.w3.org/TR/2001/REC-SVG-20010904/DTD/svg10.dtd">
<svg version="1.0" xmlns="http://www.w3.org/2000/svg"
 width="99.000000pt" height="99.000000pt" viewBox="0 0 99.000000 99.000000"
 preserveAspectRatio="xMidYMid meet">
<metadata>
Created by potrace 1.14, written by Peter Selinger 2001-2017
</metadata>
<g transform="translate(0.000000,99.000000) scale(0.100000,-0.100000)"
fill="#000000" stroke="none">
<path d="M701 893 l-43 -41 42 -56 c110 -145 118 -299 22 -439 -78 -113 -224
-177 -352 -155 -57 10 -155 58 -197 96 l-31 29 -43 -43 -42 -43 39 -36 c60
-56 189 -115 272 -123 240 -26 465 129 527 364 39 146 -5 318 -113 443 l-38
44 -43 -40z"/>
<path d="M400 575 c-255 -256 -245 -232 -127 -296 57 -31 70 -34 147 -34 69 0
94 4 132 23 177 87 238 308 128 467 -52 76 -34 86 -280 -160z"/>
</g>
</svg>
